<mxfile host="app.diagrams.net" modified="2024-03-18T08:52:07.883Z" agent="Mozilla/5.0 (Windows NT 10.0; Win64; x64) AppleWebKit/537.36 (KHTML, like Gecko) Chrome/122.0.0.0 Safari/537.36" etag="lfzLBM6cmdC94EwTxctG" version="24.0.7" type="device">
  <diagram name="Trang-1" id="lRzPjKiVFl-NboWu76BJ">
    <mxGraphModel dx="1570" dy="410" grid="1" gridSize="10" guides="1" tooltips="1" connect="1" arrows="1" fold="1" page="1" pageScale="1" pageWidth="827" pageHeight="1169" math="0" shadow="0">
      <root>
        <mxCell id="0" />
        <mxCell id="1" parent="0" />
        <mxCell id="3Q2hdz3nxnlbUVb-AAH_-3" value="Sinh viên" style="rounded=0;whiteSpace=wrap;html=1;" parent="1" vertex="1">
          <mxGeometry x="-10" y="260" width="120" height="60" as="geometry" />
        </mxCell>
        <mxCell id="3Q2hdz3nxnlbUVb-AAH_-4" value="&lt;u&gt;Mã sinh viên&lt;/u&gt;" style="ellipse;whiteSpace=wrap;html=1;" parent="1" vertex="1">
          <mxGeometry x="-30" y="100" width="90" height="50" as="geometry" />
        </mxCell>
        <mxCell id="3Q2hdz3nxnlbUVb-AAH_-5" value="Tên sinh viên" style="ellipse;whiteSpace=wrap;html=1;" parent="1" vertex="1">
          <mxGeometry x="70" y="110" width="80" height="50" as="geometry" />
        </mxCell>
        <mxCell id="3Q2hdz3nxnlbUVb-AAH_-6" value="Mã lớp" style="ellipse;whiteSpace=wrap;html=1;" parent="1" vertex="1">
          <mxGeometry x="-160" y="190" width="100" height="50" as="geometry" />
        </mxCell>
        <mxCell id="3Q2hdz3nxnlbUVb-AAH_-7" value="" style="endArrow=none;html=1;rounded=0;entryX=0.5;entryY=1;entryDx=0;entryDy=0;exitX=0.75;exitY=0;exitDx=0;exitDy=0;" parent="1" source="3Q2hdz3nxnlbUVb-AAH_-3" target="3Q2hdz3nxnlbUVb-AAH_-5" edge="1">
          <mxGeometry width="50" height="50" relative="1" as="geometry">
            <mxPoint x="260" y="310" as="sourcePoint" />
            <mxPoint x="310" y="260" as="targetPoint" />
          </mxGeometry>
        </mxCell>
        <mxCell id="3Q2hdz3nxnlbUVb-AAH_-8" value="" style="endArrow=none;html=1;rounded=0;entryX=0.5;entryY=1;entryDx=0;entryDy=0;exitX=0.25;exitY=0;exitDx=0;exitDy=0;" parent="1" source="3Q2hdz3nxnlbUVb-AAH_-3" target="3Q2hdz3nxnlbUVb-AAH_-4" edge="1">
          <mxGeometry width="50" height="50" relative="1" as="geometry">
            <mxPoint x="260" y="310" as="sourcePoint" />
            <mxPoint x="310" y="260" as="targetPoint" />
          </mxGeometry>
        </mxCell>
        <mxCell id="3Q2hdz3nxnlbUVb-AAH_-9" value="" style="endArrow=none;html=1;rounded=0;entryX=1;entryY=0.5;entryDx=0;entryDy=0;exitX=0;exitY=0.5;exitDx=0;exitDy=0;" parent="1" source="3Q2hdz3nxnlbUVb-AAH_-3" target="3Q2hdz3nxnlbUVb-AAH_-6" edge="1">
          <mxGeometry width="50" height="50" relative="1" as="geometry">
            <mxPoint x="260" y="310" as="sourcePoint" />
            <mxPoint x="310" y="260" as="targetPoint" />
          </mxGeometry>
        </mxCell>
        <mxCell id="3Q2hdz3nxnlbUVb-AAH_-10" value="Sách" style="rounded=0;whiteSpace=wrap;html=1;" parent="1" vertex="1">
          <mxGeometry x="440" y="250" width="120" height="60" as="geometry" />
        </mxCell>
        <mxCell id="3Q2hdz3nxnlbUVb-AAH_-11" value="&lt;u&gt;Mã sách&lt;/u&gt;" style="ellipse;whiteSpace=wrap;html=1;" parent="1" vertex="1">
          <mxGeometry x="430" y="150" width="100" height="50" as="geometry" />
        </mxCell>
        <mxCell id="3Q2hdz3nxnlbUVb-AAH_-12" value="" style="endArrow=none;html=1;rounded=0;entryX=0.5;entryY=1;entryDx=0;entryDy=0;exitX=0.25;exitY=0;exitDx=0;exitDy=0;" parent="1" source="3Q2hdz3nxnlbUVb-AAH_-10" target="3Q2hdz3nxnlbUVb-AAH_-11" edge="1">
          <mxGeometry width="50" height="50" relative="1" as="geometry">
            <mxPoint x="360" y="310" as="sourcePoint" />
            <mxPoint x="410" y="260" as="targetPoint" />
          </mxGeometry>
        </mxCell>
        <mxCell id="3Q2hdz3nxnlbUVb-AAH_-13" value="Tên sách" style="ellipse;whiteSpace=wrap;html=1;" parent="1" vertex="1">
          <mxGeometry x="560" y="150" width="100" height="50" as="geometry" />
        </mxCell>
        <mxCell id="3Q2hdz3nxnlbUVb-AAH_-14" value="" style="endArrow=none;html=1;rounded=0;entryX=0.5;entryY=1;entryDx=0;entryDy=0;exitX=0.75;exitY=0;exitDx=0;exitDy=0;" parent="1" source="3Q2hdz3nxnlbUVb-AAH_-10" target="3Q2hdz3nxnlbUVb-AAH_-13" edge="1">
          <mxGeometry width="50" height="50" relative="1" as="geometry">
            <mxPoint x="360" y="310" as="sourcePoint" />
            <mxPoint x="410" y="260" as="targetPoint" />
          </mxGeometry>
        </mxCell>
        <mxCell id="3Q2hdz3nxnlbUVb-AAH_-15" value="NXB" style="ellipse;whiteSpace=wrap;html=1;" parent="1" vertex="1">
          <mxGeometry x="620" y="215" width="90" height="50" as="geometry" />
        </mxCell>
        <mxCell id="3Q2hdz3nxnlbUVb-AAH_-16" value="" style="endArrow=none;html=1;rounded=0;entryX=0;entryY=0.5;entryDx=0;entryDy=0;exitX=1;exitY=0.5;exitDx=0;exitDy=0;" parent="1" source="3Q2hdz3nxnlbUVb-AAH_-10" target="3Q2hdz3nxnlbUVb-AAH_-15" edge="1">
          <mxGeometry width="50" height="50" relative="1" as="geometry">
            <mxPoint x="360" y="310" as="sourcePoint" />
            <mxPoint x="410" y="260" as="targetPoint" />
          </mxGeometry>
        </mxCell>
        <mxCell id="3Q2hdz3nxnlbUVb-AAH_-18" value="Mượn" style="rhombus;whiteSpace=wrap;html=1;" parent="1" vertex="1">
          <mxGeometry x="220" y="250" width="130" height="60" as="geometry" />
        </mxCell>
        <mxCell id="3Q2hdz3nxnlbUVb-AAH_-20" value="(1,n)" style="endArrow=none;html=1;rounded=0;exitX=1;exitY=0.5;exitDx=0;exitDy=0;entryX=0;entryY=0.5;entryDx=0;entryDy=0;" parent="1" source="3Q2hdz3nxnlbUVb-AAH_-3" target="3Q2hdz3nxnlbUVb-AAH_-18" edge="1">
          <mxGeometry width="50" height="50" relative="1" as="geometry">
            <mxPoint x="270" y="330" as="sourcePoint" />
            <mxPoint x="320" y="280" as="targetPoint" />
          </mxGeometry>
        </mxCell>
        <mxCell id="3Q2hdz3nxnlbUVb-AAH_-21" value="(0,1)" style="endArrow=none;html=1;rounded=0;entryX=0;entryY=0.5;entryDx=0;entryDy=0;exitX=1;exitY=0.5;exitDx=0;exitDy=0;" parent="1" source="3Q2hdz3nxnlbUVb-AAH_-18" target="3Q2hdz3nxnlbUVb-AAH_-10" edge="1">
          <mxGeometry width="50" height="50" relative="1" as="geometry">
            <mxPoint x="270" y="330" as="sourcePoint" />
            <mxPoint x="320" y="280" as="targetPoint" />
          </mxGeometry>
        </mxCell>
        <mxCell id="3Q2hdz3nxnlbUVb-AAH_-24" value="Ngày mượn" style="ellipse;whiteSpace=wrap;html=1;" parent="1" vertex="1">
          <mxGeometry x="300" y="175" width="90" height="40" as="geometry" />
        </mxCell>
        <mxCell id="3Q2hdz3nxnlbUVb-AAH_-25" value="" style="endArrow=none;html=1;rounded=0;entryX=0.5;entryY=1;entryDx=0;entryDy=0;exitX=0.681;exitY=0.182;exitDx=0;exitDy=0;exitPerimeter=0;" parent="1" source="3Q2hdz3nxnlbUVb-AAH_-18" target="3Q2hdz3nxnlbUVb-AAH_-24" edge="1">
          <mxGeometry width="50" height="50" relative="1" as="geometry">
            <mxPoint x="270" y="330" as="sourcePoint" />
            <mxPoint x="320" y="280" as="targetPoint" />
          </mxGeometry>
        </mxCell>
        <mxCell id="3Q2hdz3nxnlbUVb-AAH_-26" value="Ghi chú" style="ellipse;whiteSpace=wrap;html=1;" parent="1" vertex="1">
          <mxGeometry x="250" y="340" width="100" height="40" as="geometry" />
        </mxCell>
        <mxCell id="3Q2hdz3nxnlbUVb-AAH_-27" value="" style="endArrow=none;html=1;rounded=0;entryX=0.5;entryY=0;entryDx=0;entryDy=0;exitX=0.5;exitY=1;exitDx=0;exitDy=0;" parent="1" source="3Q2hdz3nxnlbUVb-AAH_-18" target="3Q2hdz3nxnlbUVb-AAH_-26" edge="1">
          <mxGeometry width="50" height="50" relative="1" as="geometry">
            <mxPoint x="270" y="330" as="sourcePoint" />
            <mxPoint x="320" y="280" as="targetPoint" />
          </mxGeometry>
        </mxCell>
      </root>
    </mxGraphModel>
  </diagram>
</mxfile>
